<?xml version="1.0" encoding="utf-8"?>
<!-- Generator: Adobe Illustrator 22.0.0, SVG Export Plug-In . SVG Version: 6.00 Build 0)  -->
<svg version="1.1" id="Calque_1" xmlns="http://www.w3.org/2000/svg" xmlns:xlink="http://www.w3.org/1999/xlink" x="0px" y="0px"
	 viewBox="0 0 355.2 192.5" style="enable-background:new 0 0 355.2 192.5;" xml:space="preserve">
<style type="text/css">
	.st0{fill:#969696;}
	.st1{opacity:0.15;}
	.st2{fill:#333333;}
	.st3{fill:#959595;}
	.st4{fill:#DFDFDF;}
</style>
<title>logo_OSNFT_blue</title>
<circle class="st0" cx="68.4" cy="34" r="34"/>
<g class="st1">
	<path class="st2" d="M47.4,34C47.4,17.7,59,3.7,75,0.6c-18.4-3.5-36.3,8.5-39.8,27s8.5,36.3,27,39.8c4.2,0.8,8.6,0.8,12.8,0
		C59,64.3,47.4,50.3,47.4,34z"/>
</g>
<path class="st3" d="M68.5,61.6c-17,0-33.3-12.3-36.1-28.4c-0.3,2-0.5,3.9-0.5,5.9c0,19,17.7,34.4,36.7,34.4s36.7-15.4,36.7-34.4
	c0-2-0.2-4-0.5-5.9C101.8,49.3,85.4,61.6,68.5,61.6z"/>
<polygon class="st3" points="4.8,72.1 37.7,72.1 20.9,16.7 0.6,62.9 "/>
<polygon class="st3" points="132.2,72.1 99.2,72.1 116.1,16.7 136.4,62.9 "/>
<polygon class="st4" points="81.8,190.6 55.2,190.6 4.8,72.1 132.1,72.1 "/>
<polygon class="st3" points="91.2,99.7 99.2,72.1 37.8,72.1 45.9,99.7 31.9,99.7 49.7,113.3 49.8,113.2 67.3,178.1 56.2,190.6 
	80.3,190.6 69.6,178.1 87.2,113.2 87.4,113.3 104.7,99.7 "/>
<path class="st4" d="M204.5,39.1c0,7.3-2.4,13.2-7.3,17.9c-4.9,4.7-11,7-18.6,7c-7.5,0-13.7-2.3-18.5-7c-4.8-4.7-7.2-10.6-7.2-17.9
	c0-7.2,2.4-13.2,7.3-17.9c4.8-4.7,11-7,18.5-7c7.5,0,13.7,2.3,18.6,7C202.1,25.8,204.5,31.8,204.5,39.1z M193.1,39.4
	c0-7.3-1.2-12.9-3.7-16.8c-4-5.9-12-7.6-17.9-3.6c-1.4,0.9-2.6,2.2-3.6,3.6c-2.4,3.9-3.7,9.5-3.7,16.9c0,6.9,1.2,12.2,3.7,16.1
	c2.3,3.7,6.3,5.9,10.7,5.7c4.3,0.1,8.4-2,10.7-5.7C191.9,51.8,193.1,46.4,193.1,39.4z"/>
<path class="st4" d="M208.5,29.5h17c3.5,0,6.3,0.8,8.3,2.4c2,1.5,3.1,3.9,3,6.3c0,2.7-1.2,5.3-3.4,6.9c-2.2,1.8-5.3,2.7-9.3,2.7
	c-1.4,0-2.8-0.1-4.2-0.3v9.5c-0.1,1.2,0.2,2.3,0.9,3.2c0.9,0.8,2,1.3,3.2,1.4v1h-15.6v-1c1.3-0.1,2.4-0.7,3.4-1.5
	c0.7-1,1-2.3,0.9-3.5V35c0.1-1.1-0.2-2.2-0.8-3.1c-1-0.8-2.2-1.3-3.4-1.4V29.5z M222.8,31.4H220v14.2c0.8,0.2,1.6,0.4,2.4,0.4
	c1.8,0.1,3.6-0.6,4.8-2c1.2-1.5,1.8-3.5,1.7-5.5c0.1-1.9-0.5-3.7-1.7-5.2C226.2,32.1,224.5,31.4,222.8,31.4L222.8,31.4z"/>
<path class="st4" d="M261.3,41h1.1v10.3h-1.1c-0.4-2.8-1.9-4.2-4.6-4.2h-5.8v9.8c-0.1,1.1,0.2,2.3,1,3.1c1,0.7,2.3,1,3.5,0.9h1.9
	c3.3,0,5.6-2.1,7-6.2h1l-0.6,8.1h-25.3v-1c1.2-0.1,2.4-0.7,3.3-1.5c0.5-0.7,0.8-1.9,0.8-3.8V35.1c0.1-1.1-0.2-2.3-0.9-3.2
	c-0.9-0.8-2.1-1.2-3.3-1.4v-1h24.9v7.4h-1c-0.3-1.6-1-3.1-2.1-4.4c-1.1-0.8-2.5-1.2-4-1.1h-6.4v13.7h5.8c1.1,0.1,2.2-0.3,3-1
	C260.6,43.3,261.1,42.2,261.3,41z"/>
<path class="st4" d="M292.3,30.5v-1h11.2v1c-3.2,0.2-4.8,2-4.8,5.4v27.2h-1.1l-23.9-26.9v20.3c-0.1,1.3,0.2,2.6,1,3.7
	c0.6,0.7,2,1.2,3.9,1.5v1h-11.5v-1c1.3-0.1,2.5-0.7,3.3-1.6c0.8-1.1,1.1-2.5,1-3.8V33.8c-0.8-0.9-1.7-1.7-2.7-2.5
	c-0.5-0.4-1.1-0.6-1.7-0.8v-1h10l19.4,22.2V36.8c0-2.2-0.3-3.7-0.9-4.5C294.8,31.3,293.6,30.7,292.3,30.5z"/>
<path class="st4" d="M178.7,75.3v12.5h-1.3c-0.8-2.7-2.3-5.1-4.5-7c-1.7-1.7-4.1-2.7-6.5-2.8c-1.9,0-3.7,0.6-5.1,1.9
	c-1.4,1.1-2.1,2.8-2.1,4.5c0,0.9,0.2,1.8,0.5,2.6c0.4,0.9,0.9,1.7,1.6,2.4c2.1,1.8,4.4,3.5,6.8,4.9c2.6,1.6,5.1,3.4,7.5,5.3
	c1.2,1.1,2.3,2.4,3.2,3.8c1.6,2.3,2.4,5.1,2.4,7.9c0.2,3.8-1.4,7.5-4.2,10c-2.8,2.5-6.4,3.8-10.1,3.7c-2.6-0.1-5.1-0.5-7.6-1.2
	c-1.1-0.3-2.2-0.5-3.3-0.6c-1,0-1.9,0.6-2.2,1.5h-1.3v-14.3h1.3c0.5,3.3,1.9,6.3,4.1,8.7c2,2.1,4.8,3.2,7.7,3.2
	c2.1,0.1,4.2-0.6,5.9-1.9c1.5-1.2,2.3-2.9,2.3-4.8c0-1.6-0.5-3.2-1.5-4.5c-1-1.4-3.6-3.5-7.9-6.2c-2.8-1.7-5.4-3.6-7.8-5.8
	c-1.3-1.3-2.2-2.9-2.9-4.6c-0.7-1.7-1-3.6-1-5.4c-0.3-7.3,5.4-13.6,12.7-13.9c0.4,0,0.8,0,1.2,0c1.5,0,3.1,0.3,4.5,0.7
	c1.2,0.3,2.5,0.5,3.8,0.6c0.9-0.1,1.7-0.6,2.3-1.3L178.7,75.3z"/>
<path class="st4" d="M214,102.3h-0.9c-0.5-2.9-1.8-5.6-3.8-7.8c-1.8-1.8-4.2-2.8-6.7-2.8c-2.8,0-5.5,1.5-6.9,3.9
	c-1.7,2.6-2.5,6.1-2.5,10.5c0,4.9,1,8.7,3,11.4c1.9,2.6,5,4.1,8.2,4c1.8,0,3.6-0.4,5.2-1.2c1.8-1,3.4-2.4,4.8-4v1.7
	c-2.7,4.3-7.5,6.9-12.5,6.8c-4.4,0.2-8.6-1.6-11.6-4.7c-3-3.1-4.4-7.2-4.5-12.3c-0.1-4.7,1.6-9.3,4.8-12.8c3-3.4,7.4-5.2,11.9-5.1
	c2.3,0.1,4.5,0.5,6.6,1.4c0.7,0.3,1.4,0.5,2.1,0.6c0.8,0,1.4-0.6,1.9-1.7h0.9L214,102.3z"/>
<path class="st4" d="M233,90.7v1c-1.2,0.2-2.2,0.7-3.1,1.5c-0.5,0.6-0.8,1.9-0.8,3.8v21.3c-0.1,1.1,0.2,2.2,0.8,3.1
	c0.9,0.8,2,1.3,3.1,1.5v1h-14.6v-1c0.9-0.2,1.7-0.5,2.5-1c0.5-0.3,0.9-0.8,1.1-1.3c0.3-1,0.4-2,0.3-3.1V96.4
	c0.1-1.1-0.2-2.2-0.8-3.1c-0.9-0.8-2-1.3-3.2-1.5v-1L233,90.7z"/>
<path class="st4" d="M257.5,102.2h1v10.3h-1c-0.4-2.8-1.8-4.2-4.3-4.2h-5.5v9.8c-0.1,1.1,0.3,2.3,1,3.1c0.9,0.7,2.1,1,3.3,0.9h1.8
	c3,0,5.2-2.1,6.5-6.2h0.9l-0.6,8.1h-23.6v-1c1.2-0.1,2.3-0.7,3.1-1.5c0.5-0.7,0.8-1.9,0.8-3.8V96.3c0.1-1.1-0.2-2.3-0.8-3.2
	c-0.9-0.8-1.9-1.2-3.1-1.4v-1h23.2v7.4h-0.9c-0.3-1.6-0.9-3.1-1.9-4.4c-1-0.8-2.4-1.2-3.7-1.1h-6v13.7h5.5c1,0.1,2.1-0.3,2.9-1
	C256.9,104.4,257.4,103.3,257.5,102.2z"/>
<path class="st4" d="M286.5,91.7v-1H297v1c-3,0.2-4.5,2-4.5,5.4v27.2h-1l-22.3-26.9v20.3c-0.1,1.3,0.2,2.6,0.9,3.7
	c1,0.9,2.3,1.4,3.6,1.5v1h-10.7v-1c1.2-0.1,2.3-0.7,3.1-1.6c0.7-1.1,1-2.5,0.9-3.8V95c-0.8-0.9-1.6-1.7-2.5-2.5
	c-0.5-0.4-1-0.6-1.6-0.8v-1h9.3l18.1,22.3V98c0.1-1.6-0.1-3.1-0.8-4.5C288.8,92.5,287.8,91.9,286.5,91.7z"/>
<path class="st4" d="M327.3,102.3h-0.9c-0.5-2.9-1.8-5.6-3.8-7.8c-1.8-1.8-4.2-2.8-6.7-2.8c-2.8,0-5.5,1.5-6.9,3.9
	c-1.7,2.6-2.5,6.1-2.5,10.5c0,4.9,1,8.7,3,11.4c1.9,2.6,5,4.1,8.2,4c1.8,0,3.6-0.4,5.2-1.2c1.8-1,3.4-2.4,4.8-4v1.7
	c-2.7,4.3-7.5,6.9-12.5,6.8c-4.4,0.2-8.6-1.6-11.6-4.7c-3-3.1-4.4-7.2-4.5-12.3c-0.1-4.7,1.6-9.3,4.8-12.8c3-3.4,7.4-5.2,11.9-5.1
	c2.3,0.1,4.5,0.5,6.6,1.4c0.7,0.3,1.4,0.5,2.1,0.6c0.8,0,1.4-0.6,1.9-1.7h0.9L327.3,102.3z"/>
<path class="st4" d="M351.5,102.2h1v10.3h-1c-0.4-2.8-1.8-4.2-4.3-4.2h-5.5v9.8c-0.1,1.1,0.2,2.3,1,3.1c0.9,0.7,2.1,1,3.3,0.9h1.8
	c3,0,5.2-2.1,6.5-6.2h0.9l-0.6,8.1H331v-1c1.2-0.2,2.3-0.7,3.1-1.5c0.5-0.7,0.8-1.9,0.8-3.8V96.3c0.1-1.1-0.2-2.3-0.8-3.2
	c-0.9-0.8-1.9-1.2-3.1-1.4v-1h23.2v7.4h-0.9c-0.3-1.6-0.9-3.1-1.9-4.4c-1-0.8-2.4-1.2-3.7-1.1h-6v13.7h5.5c1,0.1,2.1-0.3,2.9-1
	C350.8,104.4,351.3,103.3,351.5,102.2z"/>
<path class="st3" d="M191.1,145.9v-1.4h18v1.4c-5.2,0.3-7.8,2.8-7.8,7.8v38.8h-1.8L161.2,154v29c0,2.5,0.5,4.3,1.6,5.3
	s3.1,1.8,6.3,2.2v1.4h-18.4v-1.4c2.5-0.3,4.3-1.1,5.4-2.3c1.1-1.2,1.6-3,1.6-5.5v-32.2c-1.4-1.3-2.8-2.5-4.3-3.6
	c-0.8-0.5-1.8-0.9-2.8-1.1v-1.4h16.1l31.2,31.8V155c0-3.1-0.5-5.3-1.4-6.5S193.7,146.4,191.1,145.9z"/>
<path class="st3" d="M249.2,160.5h1.6v14.7h-1.6c-0.2-1.8-1.1-3.4-2.5-4.6c-1.7-1-3.7-1.5-5.8-1.4h-8.3V184c0,2.1,0.5,3.6,1.4,4.6
	s2.7,1.6,5.1,2v1.4h-25.1v-1.4c2.6-0.4,4.4-1.1,5.3-2.1c0.9-1,1.4-2.9,1.4-5.6v-30.6c0.1-1.5-0.3-3-1.3-4.1
	c-0.9-0.8-2.7-1.6-5.4-2.2v-1.4h37.9l1.1,8.9h-1.6c-0.7-1.9-2-3.6-3.6-4.8c-1.8-1.1-3.9-1.6-6-1.5h-9.2v19.4h8.3
	c1.9,0.1,3.8-0.3,5.4-1.3C247.7,164.1,248.7,162.4,249.2,160.5z"/>
<path class="st3" d="M292.3,190.5v1.4h-25.1v-1.4c2.6-0.5,4.4-1.1,5.3-2.1s1.4-2.6,1.4-5.1v-36.2h-5.3c-2.7-0.1-5.4,0.5-7.7,1.9
	c-2,1.4-3.5,3.5-4.2,5.9h-1.6l0.5-11.4h1.6c1.6,0.8,3.5,1.1,5.3,1h34.5c1.8,0.1,3.6-0.2,5.3-1h1.6l0.5,11.4H303
	c-0.7-2.4-2.2-4.5-4.2-5.9c-2.3-1.4-5-2-7.7-1.9h-5.3v36.3c0,2.3,0.5,4,1.4,5S289.8,190.1,292.3,190.5z"/>
</svg>
