<svg id="Calque_1" data-name="Calque 1" xmlns="http://www.w3.org/2000/svg" viewBox="0 0 355.17 192.46"><defs><style>.cls-1{fill:#bc412b;}.cls-2{opacity:0.15;}.cls-3,.cls-4,.cls-6{fill:#16375b;}.cls-3{stroke:#000;stroke-width:1.01px;}.cls-3,.cls-4{stroke-miterlimit:10;}.cls-4{stroke:#16375b;}.cls-5{fill:#547da3;}</style></defs><title>logo_OSNFT_blue</title><circle class="cls-1" cx="68.45" cy="34.02" r="34.02"/><g class="cls-2"><path d="M158,370.41A34,34,0,0,1,185.56,337a34,34,0,1,0,0,66.78A34,34,0,0,1,158,370.41Z" transform="translate(-110.6 -336.39)"/></g><path class="cls-3" d="M179.06,398c-17,0-33.34-12.29-36.15-28.44a34.94,34.94,0,0,0-.51,5.92c0,19,17.68,34.36,36.66,34.36s36.65-15.39,36.65-34.36a34.94,34.94,0,0,0-.51-5.92C212.39,385.7,196,398,179.06,398Z" transform="translate(-110.6 -336.39)"/><polygon class="cls-4" points="4.75 72.14 37.66 72.14 20.86 16.7 0.55 62.9 4.75 72.14"/><polygon class="cls-4" points="132.16 72.14 99.25 72.14 116.05 16.7 136.36 62.9 132.16 72.14"/><polygon class="cls-5" points="81.75 190.58 55.15 190.58 4.75 72.14 132.15 72.14 81.75 190.58"/><polygon class="cls-4" points="91.17 99.65 99.24 72.11 37.81 72.12 45.88 99.65 31.91 99.65 49.7 113.3 49.84 113.18 67.3 178.13 56.15 190.58 80.34 190.58 69.6 178.13 87.2 113.17 87.36 113.3 104.72 99.65 91.17 99.65"/><path class="cls-5" d="M315.1,375.45q0,10.88-7.28,17.87t-18.59,7q-11.26,0-18.51-7t-7.24-17.87q0-10.87,7.26-17.92t18.49-7q11.31,0,18.59,7T315.1,375.45Zm-11.35.31q0-11-3.7-16.81a12.94,12.94,0,0,0-21.54,0q-3.67,5.78-3.67,16.89,0,10.32,3.71,16.06a12,12,0,0,0,10.68,5.73,12.17,12.17,0,0,0,10.68-5.69Q303.75,386.24,303.75,375.76Z" transform="translate(-110.6 -336.39)"/><path class="cls-5" d="M319.11,365.93h17c3.5,0,6.27.81,8.29,2.44a7.74,7.74,0,0,1,3,6.34,8.44,8.44,0,0,1-3.36,6.89c-2.25,1.79-5.33,2.69-9.26,2.69a33.94,33.94,0,0,1-4.21-.28v9.47a4.79,4.79,0,0,0,.9,3.24,5.7,5.7,0,0,0,3.25,1.41v1H319.11v-1a5.84,5.84,0,0,0,3.36-1.51,5.54,5.54,0,0,0,.85-3.53V371.44a4.66,4.66,0,0,0-.8-3.13,6.88,6.88,0,0,0-3.41-1.41Zm14.31,1.88h-2.79V382a8.31,8.31,0,0,0,2.43.39,6,6,0,0,0,4.77-1.95,8,8,0,0,0,1.71-5.47,7.73,7.73,0,0,0-1.69-5.2A5.52,5.52,0,0,0,333.42,367.81Z" transform="translate(-110.6 -336.39)"/><path class="cls-5" d="M371.91,377.36H373v10.28h-1.08q-.59-4.25-4.6-4.24h-5.84v9.75a4.08,4.08,0,0,0,1,3.15,5.26,5.26,0,0,0,3.51.91h1.93q4.88,0,7-6.17h1l-.6,8.06H350v-1a5.89,5.89,0,0,0,3.32-1.51c.55-.66.83-1.92.83-3.81V371.49a4.68,4.68,0,0,0-.85-3.22,6.24,6.24,0,0,0-3.3-1.37v-1h24.86v7.36h-1a9,9,0,0,0-2.06-4.36,5.81,5.81,0,0,0-3.95-1.12h-6.42v13.71h5.84a4.44,4.44,0,0,0,3.05-.95A6,6,0,0,0,371.91,377.36Z" transform="translate(-110.6 -336.39)"/><path class="cls-5" d="M402.94,366.9v-1h11.19v1q-4.81.27-4.82,5.43v27.16h-1.09L384.36,372.6v20.27a5.57,5.57,0,0,0,1,3.72c.65.71,1.95,1.23,3.91,1.54v1H377.8v-1a5.17,5.17,0,0,0,3.34-1.59,6,6,0,0,0,1-3.84V370.19a29.43,29.43,0,0,0-2.67-2.54,4.17,4.17,0,0,0-1.73-.75v-1h10l19.39,22.23V373.24c0-2.2-.29-3.71-.87-4.55A5.13,5.13,0,0,0,402.94,366.9Z" transform="translate(-110.6 -336.39)"/><path class="cls-5" d="M289.26,411.69v12.5H288a15.19,15.19,0,0,0-4.45-7,9.69,9.69,0,0,0-6.51-2.83,7.52,7.52,0,0,0-5.14,1.86,5.83,5.83,0,0,0-2.12,4.55,6.66,6.66,0,0,0,.55,2.59,8.32,8.32,0,0,0,1.61,2.39,57.23,57.23,0,0,0,6.79,4.93,79.75,79.75,0,0,1,7.54,5.33,19.62,19.62,0,0,1,3.25,3.84,14.12,14.12,0,0,1,2.36,7.88,12.82,12.82,0,0,1-4.16,10.05,14.57,14.57,0,0,1-10.07,3.72,29.1,29.1,0,0,1-7.57-1.22,15.15,15.15,0,0,0-3.26-.64,2.35,2.35,0,0,0-2.25,1.55h-1.29V446.93h1.29a16.11,16.11,0,0,0,4.14,8.72,10.43,10.43,0,0,0,7.72,3.18,8.94,8.94,0,0,0,5.86-1.89,6,6,0,0,0,2.31-4.83,7.75,7.75,0,0,0-1.48-4.49c-1-1.41-3.62-3.48-7.92-6.21a45.07,45.07,0,0,1-7.83-5.84,14.09,14.09,0,0,1-2.89-4.62,14.78,14.78,0,0,1-1-5.4,13.31,13.31,0,0,1,13.91-13.86,19,19,0,0,1,4.54.67,19,19,0,0,0,3.76.63,3.34,3.34,0,0,0,2.29-1.3Z" transform="translate(-110.6 -336.39)"/><path class="cls-5" d="M324.6,438.7h-.86a15.08,15.08,0,0,0-3.83-7.78,9.15,9.15,0,0,0-6.72-2.76,7.84,7.84,0,0,0-6.87,3.9q-2.55,3.9-2.54,10.49,0,7.33,3,11.35a9.64,9.64,0,0,0,8.2,4,10.88,10.88,0,0,0,5.17-1.25,17.54,17.54,0,0,0,4.79-4v1.74a14.43,14.43,0,0,1-12.55,6.76,15.19,15.19,0,0,1-11.56-4.72q-4.44-4.72-4.45-12.26a18,18,0,0,1,4.8-12.77,15.66,15.66,0,0,1,11.94-5.14,18.79,18.79,0,0,1,6.59,1.39,7.76,7.76,0,0,0,2.15.61c.76,0,1.4-.58,1.91-1.72h.86Z" transform="translate(-110.6 -336.39)"/><path class="cls-5" d="M343.58,427.13v1a5.9,5.9,0,0,0-3.08,1.48c-.53.62-.8,1.9-.8,3.83v21.27a5,5,0,0,0,.75,3.13,6.34,6.34,0,0,0,3.13,1.52v1H328.94v-1a9.07,9.07,0,0,0,2.47-1,2.8,2.8,0,0,0,1.14-1.33,9.45,9.45,0,0,0,.32-3.07V432.75a4.93,4.93,0,0,0-.76-3.14,6.26,6.26,0,0,0-3.17-1.51v-1Z" transform="translate(-110.6 -336.39)"/><path class="cls-5" d="M368.15,438.56h1v10.28h-1q-.54-4.24-4.29-4.24H358.4v9.75a4.24,4.24,0,0,0,1,3.15,4.68,4.68,0,0,0,3.28.91h1.8q4.55,0,6.51-6.17h.9l-.57,8.06H347.69v-1a5.38,5.38,0,0,0,3.11-1.51c.52-.66.77-1.92.77-3.81V432.7a5,5,0,0,0-.79-3.23,5.64,5.64,0,0,0-3.09-1.37v-1h23.23v7.36H370a9.31,9.31,0,0,0-1.93-4.36A5.19,5.19,0,0,0,364.4,429h-6v13.71h5.46a4,4,0,0,0,2.85-1A6.16,6.16,0,0,0,368.15,438.56Z" transform="translate(-110.6 -336.39)"/><path class="cls-5" d="M397.15,428.1v-1H407.6v1q-4.5.27-4.5,5.43v27.16h-1L379.79,433.8v20.27a5.78,5.78,0,0,0,.91,3.72,6.13,6.13,0,0,0,3.64,1.54v1H373.66v-1a4.72,4.72,0,0,0,3.12-1.59,6.31,6.31,0,0,0,.94-3.84V431.39a30.5,30.5,0,0,0-2.49-2.54,3.78,3.78,0,0,0-1.62-.75v-1h9.31L401,449.36V434.44a9,9,0,0,0-.81-4.55A4.72,4.72,0,0,0,397.15,428.1Z" transform="translate(-110.6 -336.39)"/><path class="cls-5" d="M437.87,438.7H437a15.15,15.15,0,0,0-3.82-7.78,9.18,9.18,0,0,0-6.73-2.76,7.84,7.84,0,0,0-6.87,3.9q-2.54,3.9-2.54,10.49,0,7.33,3,11.35a9.64,9.64,0,0,0,8.2,4,10.88,10.88,0,0,0,5.17-1.25,17.54,17.54,0,0,0,4.79-4v1.74a14.43,14.43,0,0,1-12.55,6.76,15.19,15.19,0,0,1-11.56-4.72q-4.44-4.72-4.45-12.26a18,18,0,0,1,4.8-12.77,15.66,15.66,0,0,1,11.94-5.14,18.79,18.79,0,0,1,6.59,1.39,7.85,7.85,0,0,0,2.15.61c.76,0,1.4-.58,1.91-1.72h.86Z" transform="translate(-110.6 -336.39)"/><path class="cls-5" d="M462.08,438.56h1v10.28h-1q-.56-4.24-4.3-4.24h-5.45v9.75a4.24,4.24,0,0,0,.95,3.15,4.7,4.7,0,0,0,3.28.91h1.81q4.53,0,6.5-6.17h.91l-.57,8.06H441.62v-1a5.42,5.42,0,0,0,3.11-1.51c.51-.66.77-1.92.77-3.81V432.7a4.94,4.94,0,0,0-.8-3.23,5.64,5.64,0,0,0-3.08-1.37v-1h23.23v7.36h-.91a9.31,9.31,0,0,0-1.93-4.36,5.14,5.14,0,0,0-3.68-1.12h-6v13.71h5.45a4,4,0,0,0,2.85-1A6.16,6.16,0,0,0,462.08,438.56Z" transform="translate(-110.6 -336.39)"/><path class="cls-6" d="M301.74,482.3v-1.39h18v1.39q-7.75.39-7.76,7.75v38.8h-1.75l-38.44-38.41v29q0,3.79,1.56,5.32t6.29,2.19v1.38H261.24v-1.38q3.75-.51,5.38-2.27c1.08-1.18,1.62-3,1.62-5.48V487a48.58,48.58,0,0,0-4.3-3.64,7.19,7.19,0,0,0-2.79-1.06v-1.39h16.06l31.22,31.76V491.35q0-4.69-1.39-6.5T301.74,482.3Z" transform="translate(-110.6 -336.39)"/><path class="cls-6" d="M359.77,496.93h1.56v14.71h-1.56a7,7,0,0,0-2.54-4.56,9.94,9.94,0,0,0-5.75-1.37h-8.3v14.64c0,2.1.48,3.63,1.43,4.58s2.66,1.61,5.13,2v1.38H324.67v-1.38q3.94-.55,5.32-2.08c.91-1,1.37-2.88,1.37-5.59V488.7a5.61,5.61,0,0,0-1.31-4.15q-1.31-1.26-5.38-2.25v-1.39h37.87l1.07,8.9h-1.56a10.31,10.31,0,0,0-3.65-4.76,10.89,10.89,0,0,0-6-1.45h-9.21V503h8.3a9.26,9.26,0,0,0,5.42-1.3A9,9,0,0,0,359.77,496.93Z" transform="translate(-110.6 -336.39)"/><path class="cls-6" d="M402.91,526.91v1.38H377.84v-1.38c2.63-.45,4.4-1.13,5.31-2.06s1.38-2.61,1.38-5.06V483.6h-5.34a13.85,13.85,0,0,0-7.68,1.86,11,11,0,0,0-4.2,5.89h-1.56l.54-11.43h1.65a10.9,10.9,0,0,0,5.26,1h34.48a10.61,10.61,0,0,0,5.26-1h1.65l.54,11.43h-1.56a11,11,0,0,0-4.21-5.89,13.79,13.79,0,0,0-7.67-1.86h-5.34v36.27c0,2.32.46,4,1.38,5S400.38,526.52,402.91,526.91Z" transform="translate(-110.6 -336.39)"/></svg>