<?xml version="1.0" encoding="utf-8"?>
<!-- Generator: Adobe Illustrator 22.0.0, SVG Export Plug-In . SVG Version: 6.00 Build 0)  -->
<svg version="1.1" id="Layer_1" xmlns="http://www.w3.org/2000/svg" xmlns:xlink="http://www.w3.org/1999/xlink" x="0px" y="0px"
	 viewBox="0 0 24 24" style="enable-background:new 0 0 24 24;" xml:space="preserve">
<style type="text/css">
	.st0{fill:#11273F;}
</style>
<path class="st0" d="M19,13c0.7,0,1.4,0.1,2,0.4V9l-6-6H5C3.9,3,3,3.9,3,5v14c0,1.1,0.9,2,2,2h8.4c-0.2-0.6-0.4-1.3-0.4-2
	C13,15.7,15.7,13,19,13 M14,4.5l5.5,5.5H14V4.5 M23,18v2h-3v3h-2v-3h-3v-2h3v-3h2v3H23z"/>
</svg>
